<svg xmlns="http://www.w3.org/2000/svg"  viewBox="0 0 64 64" width="48px" height="48px"><path d="M 32 9 C 24.832 9 19 14.832 19 22 L 19 27.347656 C 16.670659 28.171862 15 30.388126 15 33 L 15 49 C 15 52.314 17.686 55 21 55 L 43 55 C 46.314 55 49 52.314 49 49 L 49 33 C 49 30.388126 47.329341 28.171862 45 27.347656 L 45 22 C 45 14.832 39.168 9 32 9 z M 32 13 C 36.963 13 41 17.038 41 22 L 41 27 L 23 27 L 23 22 C 23 17.038 27.037 13 32 13 z M 23.5 38.5 C 24.881 38.5 26 39.619 26 41 C 26 42.381 24.881 43.5 23.5 43.5 C 22.119 43.5 21 42.381 21 41 C 21 39.619 22.119 38.5 23.5 38.5 z M 32 38.5 C 33.381 38.5 34.5 39.619 34.5 41 C 34.5 42.381 33.381 43.5 32 43.5 C 30.619 43.5 29.5 42.381 29.5 41 C 29.5 39.619 30.619 38.5 32 38.5 z M 40.5 38.5 C 41.881 38.5 43 39.619 43 41 C 43 42.381 41.881 43.5 40.5 43.5 C 39.119 43.5 38 42.381 38 41 C 38 39.619 39.119 38.5 40.5 38.5 z"/></svg>